# xmcd CD database file
#
# Track frame offsets:
#	150
#	17987
#	40837
#	59112
#	70625
#	105925
#	128225
#	143687
#	171745
#	194225
#	221525
#	264375
#
# Disc length: 4509 seconds
#
# Revision: 0
# Processed by: cddbd v1.4PL0 Copyright (c) Steve Scherf et al.
# Submitted via: CDex 1.50Beta7
#
DISCID=ba119b0c
DTITLE=Diggin' Deeper - The Roots Of Acid Jazz Vol.5
DYEAR=1900
DGENRE=Jazz
TTITLE0=Corazon
TTITLE1=Aspirations
TTITLE2=Watermelon Man
TTITLE3=Lucky Southern
TTITLE4=I'm Not So Sure
TTITLE5=When It's Your Time To Go
TTITLE6=Jeannine
TTITLE7=A Little Bit Of This And A Little Bit Of That
TTITLE8=Hurtin' House
TTITLE9=East End, West End
TTITLE10=Take Me Back
TTITLE11=Boogie Woogie Waltz
EXTD=
EXTT0=
EXTT1=
EXTT2=
EXTT3=
EXTT4=
EXTT5=
EXTT6=
EXTT7=
EXTT8=
EXTT9=
EXTT10=
EXTT11=
PLAYORDER=
